<svg width="75" height="75" viewBox="0 0 75 75" fill="none" xmlns="http://www.w3.org/2000/svg">
<path fill-rule="evenodd" clip-rule="evenodd" d="M33.0687 39.3063C32.6509 39.6988 32.4816 40.2886 32.6276 40.843C32.7736 41.3974 33.2115 41.8273 33.7684 41.9631C34.3254 42.0989 34.912 41.9188 35.2968 41.4938L49.2218 27.3656L58.9749 27.5719L72.6562 14.9563L60.5781 14.6875L61.0656 2.54065L47.4499 15.1125L47.0468 25.1125L33.0687 39.3063ZM50.5185 16.5281L57.6404 9.96564L57.3279 17.7563L64.8279 17.9156L57.7841 24.425L50.206 24.2625L50.5185 16.5281ZM59.3438 29.3563C60.87 32.7815 61.6549 36.4908 61.6469 40.2407C61.6455 52.1107 53.8676 62.5781 42.5028 66.0044C31.1381 69.4308 18.8706 65.0069 12.3084 55.1156C5.74627 45.2244 6.43931 32.2021 14.0142 23.0632C21.5891 13.9244 34.2569 10.8275 45.1938 15.4407L46.4156 12.5657C33.1298 6.94353 17.7235 11.555 9.7114 23.5519C1.69935 35.5489 3.34223 51.5465 13.6254 61.6647C23.9086 71.7828 39.9307 73.1667 51.7965 64.9616C63.6623 56.7565 68.0239 41.2775 62.1875 28.0844L59.3438 29.3563ZM34.7279 27.1876C36.8201 27.1803 38.8825 27.6822 40.7373 28.6501L42.178 25.8782C35.0035 22.159 26.1852 24.3008 21.516 30.8965C16.8468 37.4922 17.7573 46.5211 23.6493 52.0519C29.5413 57.5826 38.6097 57.9207 44.8971 52.8441C51.1846 47.7674 52.7649 38.8314 48.5998 31.9063L45.9248 33.5188C48.9824 38.6039 48.2287 45.1109 44.0895 49.3623C39.9503 53.6137 33.4657 54.5412 28.3007 51.6207C23.1357 48.7001 20.588 42.6653 22.0975 36.927C23.607 31.1887 28.7944 27.1886 34.7279 27.1876Z" fill="black"/>
</svg>
