<svg width="75" height="75" viewBox="0 0 75 75" fill="none" xmlns="http://www.w3.org/2000/svg">
<path fill-rule="evenodd" clip-rule="evenodd" d="M15.625 65.625H59.375V50H56.25V62.5H18.75V12.5H56.25V28.125H59.375V9.375H15.625V65.625ZM30.0001 33.125L27.8126 28.4375C29.3751 27.8125 30.0001 26.25 29.6876 25.3125C29.6876 23.4375 28.7501 21.875 26.2501 21.875H21.8751V33.125H24.0626V28.75H25.6251L27.5001 33.125H30.0001ZM27.5001 25.3125C27.5001 26.5625 26.5626 26.875 25.9376 26.875V27.1875H24.0626V23.75H25.9376C26.8751 23.75 27.5001 24.0625 27.5001 25.3125ZM31.8758 33.125V21.875H39.3758V23.4375H34.3758V26.25H38.7508V28.125H34.3758V31.5625H39.6883V33.125H31.8758ZM41.562 21.875V33.125H43.7495V28.125H47.812V26.5625H43.7495V23.4375H49.062V21.875H41.562ZM50.9368 33.125V21.875H53.1243V33.125H50.9368ZM43.7501 53.1251H50.6251L68.7501 35.3126V34.6876C68.7501 34.3751 68.7501 31.8751 67.1876 30.0001C66.2501 28.7501 64.3751 28.1251 62.5001 28.1251H61.8751L43.7501 46.2501V53.1251ZM49.3751 50.0001H46.8751V47.5001L63.1251 31.5626C64.0626 31.5626 64.6876 31.8751 65.0001 32.1876C65.3126 32.5001 65.6251 33.1251 65.6251 33.7501L49.3751 50.0001Z" fill="black"/>
</svg>
